<svg xmlns="http://www.w3.org/2000/svg" viewBox="0 0 95.62 85.67"><title>Web4Colors</title><g id="Capa_1" data-name="Capa 1"><path d="M84.39,19.09h-5V17.38A1.5,1.5,0,0,0,78.3,15.9a41.53,41.53,0,0,0-10.65-1.36c-5.91,0-14,1.33-19.91,7.39-5.91-6.12-14-7.39-19.92-7.39A41.64,41.64,0,0,0,17.17,15.9a1.48,1.48,0,0,0-1.06,1.48v1.7h-5a1.48,1.48,0,0,0-1.48,1.48V67.74a1.48,1.48,0,0,0,1.48,1.48,1.46,1.46,0,0,0,.73-.2c.14-.07,14.92-8.15,35.54-3h.35a2.16,2.16,0,0,0,.36,0c20.68-5.24,35.45,2.82,35.54,3a1.45,1.45,0,0,0,1.48,0,1.49,1.49,0,0,0,.74-1.27V20.57A1.48,1.48,0,0,0,84.39,19.09ZM12.61,65.39V22.05h3.53V59.1a1.47,1.47,0,0,0,1.46,1.49,1,1,0,0,0,.24,0,64.76,64.76,0,0,1,9.23-.73,38.35,38.35,0,0,1,12.62,1.9A54.38,54.38,0,0,0,12.61,65.39ZM27.07,56.9a65.5,65.5,0,0,0-8,.51V18.55a41,41,0,0,1,8.76-1c5.53,0,13.15,1.27,18.44,7.24l.05,36.8C43.2,59.6,37.21,56.9,27.07,56.9ZM49.23,24.81c5.29-5.91,12.91-7.24,18.44-7.24a41,41,0,0,1,8.76,1V57.41a64.75,64.75,0,0,0-8-.53c-10.07,0-16.08,2.7-19.2,4.71ZM82.9,65.39a54.39,54.39,0,0,0-27.14-3.65,38.38,38.38,0,0,1,12.67-1.9,64.4,64.4,0,0,1,9.3.72,1.48,1.48,0,0,0,1.68-1.24,1,1,0,0,0,0-.24v-37H83Z"/></g></svg>